<svg height="542" width="720" xmlns="http://www.w3.org/2000/svg">
<rect height="542" fill="#555" width="720"></rect>
<text fill="#7f7" font-family="Courier New" font-size="12" xml:space="preserve">
<tspan x="10" y="26">└─┬ postcss-loader@1.3.3 </tspan>
<tspan x="10" y="42">  ├─┬ loader-utils@1.1.0 </tspan>
<tspan x="10" y="58">  │ ├── big.js@3.1.3 </tspan>
<tspan x="10" y="74">  │ ├── emojis-list@2.1.0 </tspan>
<tspan x="10" y="90">  │ └── json5@0.5.1 </tspan>
<tspan x="10" y="106">  ├── object-assign@4.1.1 </tspan>
<tspan x="10" y="122">  ├─┬ postcss@5.2.16 </tspan>
<tspan x="10" y="138">  │ ├─┬ chalk@1.1.3 </tspan>
<tspan x="10" y="154">  │ │ ├── ansi-styles@2.2.1 </tspan>
<tspan x="10" y="170">  │ │ ├── escape-string-regexp@1.0.5 </tspan>
<tspan x="10" y="186">  │ │ ├─┬ has-ansi@2.0.0 </tspan>
<tspan x="10" y="202">  │ │ │ └── ansi-regex@2.1.1 </tspan>
<tspan x="10" y="218">  │ │ ├── strip-ansi@3.0.1 </tspan>
<tspan x="10" y="234">  │ │ └── supports-color@2.0.0 </tspan>
<tspan x="10" y="250">  │ ├── js-base64@2.1.9 </tspan>
<tspan x="10" y="266">  │ ├── source-map@0.5.6 </tspan>
<tspan x="10" y="282">  │ └─┬ supports-color@3.2.3 </tspan>
<tspan x="10" y="298">  │   └── has-flag@1.0.0 </tspan>
<tspan x="10" y="314">  └─┬ postcss-load-config@1.2.0 </tspan>
<tspan x="10" y="330">    ├─┬ cosmiconfig@2.1.1 </tspan>
<tspan x="10" y="346">    │ ├─┬ js-yaml@3.8.2 </tspan>
<tspan x="10" y="362">    │ │ ├─┬ argparse@1.0.9 </tspan>
<tspan x="10" y="378">    │ │ │ └── sprintf-js@1.0.3 </tspan>
<tspan x="10" y="394">    │ │ └── esprima@3.1.3 </tspan>
<tspan x="10" y="410">    │ ├── minimist@1.2.0 </tspan>
<tspan x="10" y="426">    │ ├── os-homedir@1.0.2 </tspan>
<tspan x="10" y="442">    │ ├─┬ parse-json@2.2.0 </tspan>
<tspan x="10" y="458">    │ │ └─┬ error-ex@1.3.1 </tspan>
<tspan x="10" y="474">    │ │   └── is-arrayish@0.2.1 </tspan>
<tspan x="10" y="490">    │ └── require-from-string@1.2.1 </tspan>
<tspan x="10" y="506">    ├── postcss-load-options@1.2.0 </tspan>
<tspan x="10" y="522">    └── postcss-load-plugins@2.3.0</tspan>
</text>
</svg>
